<svg xmlns="http://www.w3.org/2000/svg" xmlns:xlink="http://www.w3.org/1999/xlink" width="125" height="130"
     viewBox="0 0 125 130">
  <defs>
    <path id="a" d="M4.545 13.651h115.91v76.22H4.545z"/>
  </defs>
  <g fill="none" fill-rule="evenodd">
    <path stroke="#252525" stroke-linecap="round" stroke-width="4.455"
          d="M62.5 97.422v26.165M62.5 97.422L93.182 127M62.5 97.422L31.818 127M62.5 12.1V3"/>
    <path fill="#D7D7D5" d="M0 12.1h125v85.322H0z"/>
    <g transform="translate(0 3)">
      <use fill="#FFF" xlink:href="#a"/>
      <path stroke="#D7D7D5" stroke-width="12.473" d="M10.782 19.888v63.747h103.436V19.888H10.782z"/>
    </g>
    <path fill="#D7D7D5"
          d="M69.205 71.066l-1.591-4.058v-11.33l3.977 4.058v-14.07c0-5.743-2.888-11.073-7.632-14.131a.6.6 0 0 0-.646 0c-4.743 3.058-7.631 8.388-7.631 14.13v14.07l3.977-4.057v11.33l-1.59 4.058v2.466h11.136v-2.466M47.788 44.958h-.06c.025-.146.055-2.506.089-2.65.5-2.139 1.819-4.021 3.727-5.18 1.921 1.167 3.567 3.068 4.059 5.227.02.09.04 1.265.057 2.007h.007v.273a4.7 4.7 0 0 0 .015.323h-.015v14.789l-7.88 8.097V44.958z"/>
    <path fill="#D7D7D5"
          d="M79.47 44.995h.075c-.026-.146-.056-2.517-.09-2.662-.5-2.15-1.818-4.04-3.726-5.205-1.922 1.173-3.567 3.083-4.06 5.252-.018.084-.036 1.127-.053 1.87h-.025v15.458l7.88 8.136V44.995z"/>
    <path fill="#252525"
          d="M80.371 78.083h-9.606c-.255 0-.401-.276-.248-.47l1.049-4.08h8.005l1.048 4.08c.153.194.008.47-.248.47M56.508 78.083H46.9c-.255 0-.4-.276-.248-.47l1.049-4.08h8.005l1.049 4.08c.153.194.007.47-.248.47"/>
    <path fill="#DA0011" stroke="#DA0011" stroke-width="3.564"
          d="M68.636 73.532h14.319v-1.655L67.045 55.33v11.551l1.591 4.137v2.514M57.5 73.5v-2.482l1.59-4.137v-11.55L43.183 71.876v1.655H57.5V73.5"/>
    <path fill="#252525" d="M68.182 75.807H59.09L60 73.532h7.273l.909 2.275"/>
    <path fill="#FFF"
          d="M67.695 67.152V46.516a9.232 9.232 0 0 0-2.796-6.601 1.813 1.813 0 0 0-2.525 0 9.232 9.232 0 0 0-2.796 6.601v20.636l-1.623 3.968v2.412h11.363V71.12l-1.623-3.968"/>
    <path stroke="#252525" stroke-width="3.564" d="M63.636 73.532V70.12"/>
  </g>
</svg>
